<svg width="50" height="50" viewBox="0 0 50 50" fill="none" xmlns="http://www.w3.org/2000/svg">
<circle cx="25" cy="25" r="25" fill="black"/>
<g clip-path="url(#clip0_19_76)">
<path d="M30.5685 10.014C30.509 9.9475 28.3652 10.0402 26.4997 12.065C24.6342 14.088 24.9212 16.4085 24.9632 16.468C25.0052 16.5275 27.6232 16.6202 29.2945 14.2665C30.9657 11.9127 30.628 10.0822 30.5685 10.014ZM36.368 30.5467C36.284 30.3787 32.2992 28.3872 32.6702 24.5582C33.0412 20.7275 35.6015 19.6775 35.6417 19.5637C35.682 19.45 34.597 18.1812 33.4472 17.539C32.6031 17.0862 31.6688 16.8268 30.712 16.7795C30.523 16.7742 29.8667 16.6132 28.5175 16.9825C27.6285 17.2257 25.6247 18.0132 25.0735 18.0447C24.5205 18.0762 22.8755 17.1312 21.1062 16.881C19.974 16.6622 18.7735 17.1102 17.9142 17.455C17.0567 17.798 15.4257 18.7745 14.2847 21.3697C13.1437 23.9632 13.7405 28.0722 14.1675 29.3497C14.5945 30.6255 15.2612 32.7167 16.3952 34.2427C17.4032 35.9647 18.7402 37.16 19.2985 37.566C19.8567 37.972 21.4317 38.2415 22.5237 37.6832C23.4022 37.1442 24.9877 36.8345 25.6142 36.8572C26.239 36.88 27.471 37.1267 28.7327 37.8005C29.732 38.1452 30.677 38.0017 31.6237 37.6167C32.5705 37.23 33.9407 35.7635 35.5402 32.7902C36.1475 31.4077 36.424 30.6605 36.368 30.5467Z" fill="white"/>
<path d="M30.5685 10.014C30.509 9.9475 28.3652 10.0402 26.4997 12.065C24.6342 14.088 24.9212 16.4085 24.9632 16.468C25.0052 16.5275 27.6232 16.6202 29.2945 14.2665C30.9657 11.9127 30.628 10.0822 30.5685 10.014ZM36.368 30.5467C36.284 30.3787 32.2992 28.3872 32.6702 24.5582C33.0412 20.7275 35.6015 19.6775 35.6417 19.5637C35.682 19.45 34.597 18.1812 33.4472 17.539C32.6031 17.0862 31.6688 16.8268 30.712 16.7795C30.523 16.7742 29.8667 16.6132 28.5175 16.9825C27.6285 17.2257 25.6247 18.0132 25.0735 18.0447C24.5205 18.0762 22.8755 17.1312 21.1062 16.881C19.974 16.6622 18.7735 17.1102 17.9142 17.455C17.0567 17.798 15.4257 18.7745 14.2847 21.3697C13.1437 23.9632 13.7405 28.0722 14.1675 29.3497C14.5945 30.6255 15.2612 32.7167 16.3952 34.2427C17.4032 35.9647 18.7402 37.16 19.2985 37.566C19.8567 37.972 21.4317 38.2415 22.5237 37.6832C23.4022 37.1442 24.9877 36.8345 25.6142 36.8572C26.239 36.88 27.471 37.1267 28.7327 37.8005C29.732 38.1452 30.677 38.0017 31.6237 37.6167C32.5705 37.23 33.9407 35.7635 35.5402 32.7902C36.1475 31.4077 36.424 30.6605 36.368 30.5467Z" fill="white"/>
</g>
<defs>
<clipPath id="clip0_19_76">
<rect width="28" height="28" fill="white" transform="translate(11 10)"/>
</clipPath>
</defs>
</svg>
