<svg width="50" height="50" viewBox="0 0 50 50" fill="none" xmlns="http://www.w3.org/2000/svg">
<circle cx="25" cy="25" r="25" fill="#00C536"/>
<path fill-rule="evenodd" clip-rule="evenodd" d="M21.7409 13.8707C19.0767 13.751 16.4042 13.8365 13.7316 13.828C13.7487 20.9627 13.7401 28.0976 13.7401 35.2324C16.4042 35.2496 19.0767 35.241 21.7409 35.2324C21.7834 31.6992 21.6895 28.1575 21.7834 24.6157C22.6629 25.8391 23.457 27.1223 24.3537 28.3286C25.8478 30.6555 27.5386 32.8456 28.973 35.2068C31.6628 35.2752 34.344 35.2068 37.0335 35.2496C37.0591 34.9159 37.0932 34.5823 37.0932 34.2486C37.0507 27.4389 37.1274 20.6291 37.0591 13.8194C34.4037 13.8023 31.7481 13.828 29.0925 13.8109C29.0756 17.3697 29.1097 20.9285 29.067 24.4788C26.5994 20.9713 24.2684 17.3441 21.7409 13.8707Z" fill="white"/>
</svg>
