<svg width="50" height="50" viewBox="0 0 50 50" fill="none" xmlns="http://www.w3.org/2000/svg">
<circle cx="25" cy="25" r="25" fill="#FFE600"/>
<path fill-rule="evenodd" clip-rule="evenodd" d="M25.004 12C16.7197 12 10 17.3029 10 23.8494C10 28.0574 12.7849 31.7492 16.9622 33.8533L15.5463 39.1326C15.4915 39.289 15.5385 39.469 15.6558 39.5864C15.734 39.6645 15.8436 39.7116 15.9609 39.7116C16.0548 39.7116 16.1408 39.6723 16.219 39.6097L22.2972 35.5036C23.1812 35.6286 24.0808 35.6991 24.9962 35.6991C33.2803 35.6991 40 30.3962 40 23.8494C40.0078 17.3029 33.2881 12 25.004 12Z" fill="#381E1E"/>
<path fill-rule="evenodd" clip-rule="evenodd" d="M15.2551 22.0045H13.598C13.368 22.0045 13.1777 21.9491 13.0112 21.8464C12.8447 21.7437 12.7496 21.5935 12.7099 21.404C12.702 21.3565 12.6941 21.2933 12.6862 21.2381C12.6862 21.0011 12.7734 20.8114 12.9478 20.6771C13.1222 20.5428 13.3363 20.4717 13.598 20.4717H18.6564C18.8864 20.4717 19.0846 20.5271 19.2433 20.6298C19.4098 20.7325 19.5127 20.8746 19.5524 21.0722C19.5604 21.1276 19.5683 21.1827 19.5604 21.2381C19.5604 21.483 19.4732 21.6726 19.3067 21.807C19.1402 21.9413 18.9261 22.0045 18.6564 22.0045H17.0073V27.6849C17.0073 27.9535 16.928 28.1746 16.7694 28.3405C16.6109 28.5064 16.3968 28.5856 16.1272 28.5856C15.9052 28.5856 15.7229 28.5223 15.5643 28.4037C15.4057 28.2773 15.3106 28.1194 15.2709 27.906C15.2551 27.827 15.2551 27.756 15.2551 27.677V22.0045Z" fill="#FFE600"/>
<path fill-rule="evenodd" clip-rule="evenodd" d="M20.0357 21.0141C20.1061 20.8205 20.208 20.681 20.3491 20.5957C20.4903 20.5106 20.6626 20.4717 20.8822 20.4717H21.2975C21.5248 20.4717 21.7129 20.5182 21.8618 20.6036C22.0108 20.6887 22.136 20.867 22.2224 21.1226L24.3149 27.1123C24.3856 27.2983 24.4325 27.4532 24.456 27.5925C24.4718 27.6778 24.4875 27.7475 24.4875 27.8018C24.4875 28.0188 24.4013 28.2047 24.2445 28.3521C24.0876 28.507 23.8918 28.5767 23.6723 28.5767C23.2725 28.5767 23.014 28.4141 22.8964 28.0884L22.4497 26.7867H19.6594L19.2127 28.0884C19.103 28.4141 18.8443 28.5767 18.4368 28.5767C18.2331 28.5767 18.0605 28.5302 17.9275 28.4217C17.7863 28.3209 17.7001 28.1659 17.6609 27.9799C17.6452 27.9258 17.6452 27.8638 17.6452 27.8018C17.6452 27.7165 17.653 27.6082 17.6922 27.4842C17.7236 27.3601 17.7628 27.2361 17.8098 27.12L20.0357 21.0141ZM21.0781 22.401H21.0546L20.0357 25.5469H22.0577L21.0781 22.401Z" fill="#FFE600"/>
<path fill-rule="evenodd" clip-rule="evenodd" d="M24.6782 21.3493C24.6782 21.0875 24.755 20.872 24.9084 20.7104C25.0619 20.5488 25.2691 20.4717 25.5301 20.4717C25.745 20.4717 25.9291 20.5333 26.075 20.6488C26.2209 20.7643 26.3207 20.9259 26.3589 21.1261C26.3744 21.203 26.382 21.2724 26.3744 21.3493V26.8918H29.2062C29.4366 26.8918 29.6283 26.9379 29.7819 27.0458C29.9354 27.1458 30.0352 27.2921 30.0658 27.4768C30.0813 27.5229 30.0889 27.5847 30.0889 27.6384C30.0889 27.877 30.0044 28.0618 29.8356 28.1849C29.6668 28.3159 29.4595 28.3775 29.2062 28.3775H25.6683C25.4074 28.3775 25.1925 28.3236 25.0313 28.2157C24.8701 28.108 24.7627 27.9386 24.709 27.6923C24.6858 27.5923 24.6782 27.4768 24.6705 27.346L24.6782 21.3493Z" fill="#FFE600"/>
<path fill-rule="evenodd" clip-rule="evenodd" d="M30.2495 21.3551C30.2495 21.0916 30.3286 20.8746 30.4867 20.712C30.6449 20.5492 30.8584 20.4717 31.1272 20.4717C31.3487 20.4717 31.5305 20.5337 31.6886 20.6498C31.8469 20.7662 31.9417 20.9288 31.9812 21.1305C31.9971 21.2077 32.005 21.2776 31.9971 21.3551L32.005 23.9507L34.7492 20.8592C34.8756 20.7273 34.9783 20.6346 35.0812 20.5647C35.1839 20.5027 35.3027 20.4717 35.4449 20.4717C35.6348 20.4717 35.8088 20.5261 35.9668 20.6267C36.1251 20.7273 36.2199 20.867 36.2594 21.0451C36.2594 21.0528 36.2675 21.0761 36.2753 21.1147C36.2753 21.1381 36.2753 21.1691 36.2832 21.1846C36.2832 21.3086 36.2516 21.417 36.2042 21.51C36.1489 21.6109 36.0776 21.7036 35.9984 21.7968L34.2035 23.7183L36.3228 27.0115L36.3861 27.1123C36.5284 27.3369 36.6154 27.4997 36.639 27.6082C36.639 27.6159 36.647 27.6392 36.6549 27.6623C36.6549 27.6933 36.6549 27.7088 36.6549 27.7165C36.6549 28.0188 36.5679 28.2434 36.3939 28.3752C36.2199 28.507 36.0065 28.5767 35.7612 28.5767C35.5794 28.5767 35.437 28.5457 35.3263 28.4837C35.2157 28.4141 35.0969 28.2977 34.9864 28.1118L32.9697 24.9349L32.013 25.9112L32.0209 27.6857C32.0209 27.9491 31.9417 28.1659 31.7837 28.3287C31.6254 28.4913 31.4119 28.569 31.1431 28.569C30.9216 28.569 30.7319 28.507 30.5815 28.3907C30.4313 28.2667 30.3286 28.1118 30.2889 27.9025C30.2732 27.825 30.2732 27.7553 30.2732 27.6778L30.2495 21.3551Z" fill="#FFE600"/>
</svg>
