<svg width="50" height="50" viewBox="0 0 50 50" fill="none" xmlns="http://www.w3.org/2000/svg">
<circle cx="25" cy="25" r="25" fill="#EA4335"/>
<g clip-path="url(#clip0_19_77)">
<path d="M38.2037 23.4766C38.367 24.4162 38.4484 25.3683 38.447 26.3221C38.447 30.5816 36.9245 34.1831 34.275 36.6208H34.2785C31.9615 38.7611 28.7765 40.0001 25 40.0001C21.287 40.0001 17.726 38.5251 15.1005 35.8996C12.475 33.2741 11 29.7131 11 26.0001C11 22.287 12.475 18.7261 15.1005 16.1006C17.726 13.4751 21.287 12.0001 25 12.0001C28.4754 11.9594 31.8317 13.265 34.366 15.6436L30.369 19.6406C28.9242 18.2633 26.9959 17.5091 25 17.5406C21.3477 17.5406 18.245 20.0046 17.139 23.3226C16.5526 25.0612 16.5526 26.9442 17.139 28.6828H17.1442C18.2555 31.9956 21.353 34.4596 25.0052 34.4596C26.8917 34.4596 28.5122 33.9766 29.7687 33.1226H29.7635C30.4931 32.6392 31.1172 32.0131 31.5981 31.2819C32.0791 30.5507 32.4069 29.7297 32.5617 28.8683H25V23.4783H38.2037V23.4766Z" fill="white"/>
</g>
<defs>
<clipPath id="clip0_19_77">
<rect width="28" height="28" fill="white" transform="translate(11 12)"/>
</clipPath>
</defs>
</svg>
