<svg xmlns="http://www.w3.org/2000/svg" viewBox="0 0 460.57 178.47"><defs><style>.cls-1{fill:#fff;}</style></defs><title>Asset 9</title><g id="Layer_2" data-name="Layer 2"><g id="Layer_1-2" data-name="Layer 1"><path class="cls-1" d="M180,151.51a91.34,91.34,0,0,1-23.58,4.28,98.79,98.79,0,0,1-22.25-1.48,107.93,107.93,0,0,1-20.77-6,170.78,170.78,0,0,1-19.29-9.15,202.7,202.7,0,0,1-17.64-11q-8.4-5.85-16-11.45a49.79,49.79,0,0,0,13.6-14.84,112.19,112.19,0,0,0,9.4-19.53,216.57,216.57,0,0,0,6.68-21.43Q93,50,95.71,40.48a138.08,138.08,0,0,1,5.77-16.56q3-7.09,7.5-9.89c1.32-.88,1.78-1.82,1.4-2.81a6.19,6.19,0,0,0-2.89-2.8,20.32,20.32,0,0,0-5.85-2.06,36,36,0,0,0-7.33-.74,24.57,24.57,0,0,0-7.42,1.15,14,14,0,0,0-6.1,3.8,48.77,48.77,0,0,0-8,12.11A152.75,152.75,0,0,0,66.2,38.75q-3,8.74-5.93,18.22T54.5,75.6Q51.61,84.75,48.4,93a80.5,80.5,0,0,1-7.17,14.34,50.42,50.42,0,0,0-11.3-2.23,33.53,33.53,0,0,0-11.12,1.08,33,33,0,0,0-11.46,5.19A18.86,18.86,0,0,0,1,119,11.08,11.08,0,0,0,.1,125a8.81,8.81,0,0,0,2.22,4.78,11.38,11.38,0,0,0,5.85,3.05,22,22,0,0,0,7.84.08q21.75-1,38.24-11.54A146.08,146.08,0,0,1,72,132q9.15,6.34,18.79,13.27t19.62,13.52a166.65,166.65,0,0,0,20,11.38,97.64,97.64,0,0,0,19.78,7.08,44.32,44.32,0,0,0,19.37.33q6.42-1.32,9.48-5.68a21.84,21.84,0,0,0,3.79-9.07,20.59,20.59,0,0,0-.17-8.24C182,152.19,181.12,151.18,180,151.51Z"/><path class="cls-1" d="M402.56,80a2.7,2.7,0,0,0-2.55-.33,3,3,0,0,0-1.73,1.81,68.34,68.34,0,0,1-4.54,9.31,115.94,115.94,0,0,1-14.5,19.87,73.47,73.47,0,0,1-8.57,8.07,36.29,36.29,0,0,1-8.58,5.2,13.91,13.91,0,0,1-7.83,1.07,5.21,5.21,0,0,1-3.71-2.8A15.38,15.38,0,0,1,349,116.4a36.37,36.37,0,0,1,.16-7.67,59.37,59.37,0,0,1,1.65-8.49,53.65,53.65,0,0,0,15.5-6.84,57.38,57.38,0,0,0,11.78-10.06,46.34,46.34,0,0,0,7.5-11.29,25.6,25.6,0,0,0,2.64-10.55,10.63,10.63,0,0,0-2.88-7.74c-1.93-2-4.92-3-9-3a33.32,33.32,0,0,0-11.7,2.14,39.63,39.63,0,0,0-11.21,6.59A55.62,55.62,0,0,0,343.14,71a71.45,71.45,0,0,0-5.61,9.72,3.16,3.16,0,0,0-.41.75l-.24.62c-.56,1.21-1.11,2.44-1.65,3.72-.42.86-.88,1.77-1.41,2.75q-2.31,4.29-5.27,9.06t-6.27,9.56q-3.3,4.78-6.43,8.66a71.4,71.4,0,0,1-5.68,6.35q-2.57,2.46-4.21,2.63c-2,.22-2.77-1.09-2.39-4a55.93,55.93,0,0,1,3.3-11.46q2.72-7.17,7.25-16.65T323.52,73q4.86-10.3,9.73-20.69T341.57,33a154.44,154.44,0,0,0,16.48-1.15q7.92-1,14.43-2.39a68,68,0,0,0,11.21-3.3,20.65,20.65,0,0,0,6.84-4,3.77,3.77,0,0,0,1.4-4,6.86,6.86,0,0,0-2.06-3.46,4.16,4.16,0,0,0-3-1.24c-1,.06-1.48.91-1.48,2.56q0,2.13-3.55,3.62A40.85,40.85,0,0,1,372.56,22a118.25,118.25,0,0,1-13,1.24q-7.26.33-14.51,0a73.63,73.63,0,0,0,2.14-8.9A12.87,12.87,0,0,0,347,8.09q-1.49-4.94-5-6.59A14.54,14.54,0,0,0,335.14,0a12,12,0,0,0-5.52,1.49c-1.48.88-1.84,1.65-1.07,2.31.55.55.38,2.41-.5,5.6s-2.25,7.25-4.12,12.2q-10.21-1-19.7-1.32a86.11,86.11,0,0,0-17,.91,26.69,26.69,0,0,0-12.2,4.86q-4.71,3.63-5.35,10.55a17.15,17.15,0,0,0,.56,6.84,6.55,6.55,0,0,0,2.25,3.46,2.11,2.11,0,0,0,2.49.17c.76-.5,1.19-1.51,1.29-3A7.23,7.23,0,0,1,280,38a28,28,0,0,1,9.4-3.38,85.48,85.48,0,0,1,13.6-1.4q7.74-.24,16.32-.25Q315,43.21,310,55T300.52,77.9c-1.12,2.81-2.16,5.51-3.17,8.14q-1.11,2.28-2.51,4.72a116.73,116.73,0,0,1-14.51,19.87,72.69,72.69,0,0,1-8.57,8.07,36.25,36.25,0,0,1-8.57,5.2,13.92,13.92,0,0,1-7.83,1.07,5.19,5.19,0,0,1-3.71-2.8,15.19,15.19,0,0,1-1.57-5.77,36.41,36.41,0,0,1,.17-7.67,59.32,59.32,0,0,1,1.64-8.49,53.53,53.53,0,0,0,15.5-6.84,57.45,57.45,0,0,0,11.79-10.06,46.34,46.34,0,0,0,7.5-11.29,25.76,25.76,0,0,0,2.64-10.55,10.64,10.64,0,0,0-2.89-7.74c-1.92-2-4.92-3-9-3a33.38,33.38,0,0,0-11.71,2.14,39.63,39.63,0,0,0-11.21,6.59A55.9,55.9,0,0,0,244.23,71a82.46,82.46,0,0,0-8.54,16.38c-.57,1.11-1.17,2.23-1.84,3.4a114.76,114.76,0,0,1-6.6,10.14,113,113,0,0,1-7.91,9.73,72.69,72.69,0,0,1-8.57,8.07,36.25,36.25,0,0,1-8.57,5.2,13.93,13.93,0,0,1-7.83,1.07q-3.13-.66-4.29-4.37a25.72,25.72,0,0,1-.91-8.82,58.94,58.94,0,0,1,1.65-10.88,60.42,60.42,0,0,1,3.55-10.55q3.45-7.57,6.92-13.76A86.63,86.63,0,0,1,208,66.2a36.46,36.46,0,0,1,6-6.43q2.81-2.22,5.11-2.06a2.77,2.77,0,0,1,2.64,2,7.3,7.3,0,0,0-1.9,2,4.52,4.52,0,0,0-.74,2.47,4.29,4.29,0,0,0,1.57,3.46,5.33,5.33,0,0,0,3.54,1.32,4.39,4.39,0,0,0,3.63-1.65q1.48-1.48,1.48-4.78A10.64,10.64,0,0,0,228,57a11.39,11.39,0,0,0-3.21-3.55,12.85,12.85,0,0,0-4.12-1.89,24.63,24.63,0,0,0-4.2-.74,33,33,0,0,0-11.71,1.81,35.68,35.68,0,0,0-11.21,6.51,56.38,56.38,0,0,0-10.3,11.71,77.23,77.23,0,0,0-5.43,9.48,2.91,2.91,0,0,0-.75,1.15,52.92,52.92,0,0,1-3.3,7.09q-2.31,4.29-5.28,9.06t-6.26,9.56q-3.3,4.78-6.43,8.66a64,64,0,0,1-5.77,6.35q-2.64,2.46-4.12,2.63c-2.53.22-3.65-.79-3.38-3a31.89,31.89,0,0,1,3.13-9.06q2.73-5.68,6.76-12.94T160,85.07a93.54,93.54,0,0,0,5.52-14.25q2-6.84.49-11.63c-1-3.29-2.66-5.49-5-6.59a14.4,14.4,0,0,0-6.84-1.48,11.83,11.83,0,0,0-5.52,1.48c-1.48.88-1.84,1.65-1.07,2.31s.93,2,.5,4a51,51,0,0,1-2.4,7.34q-1.72,4.36-4.12,9.64t-4.86,11Q134,92,130,98.51t-8.24,12.36a90.9,90.9,0,0,1-8,9.81q-3.8,4-5.77,4.12c-2.53.22-3.66-.79-3.38-3a31.58,31.58,0,0,1,3.13-9.06q2.72-5.68,6.76-12.94t7.58-14.68a92.51,92.51,0,0,0,5.52-14.25q2-6.84.5-11.63t-5-6.59a14.4,14.4,0,0,0-6.84-1.48,11.83,11.83,0,0,0-5.52,1.48q-2.23,1.32-1.08,2.31,1.16,1.16.42,4.28a54.83,54.83,0,0,1-2.64,7.75q-1.91,4.62-4.45,10.31T97.93,89q-2.48,6.1-4.37,12.2A66,66,0,0,0,91,112.77a35,35,0,0,0,0,8.32,18.64,18.64,0,0,0,2,6.6,11.09,11.09,0,0,0,3.87,4.2,9.61,9.61,0,0,0,5.69,1.32,13.34,13.34,0,0,0,6.59-2,35.77,35.77,0,0,0,6.92-5.27,77.9,77.9,0,0,0,6.85-7.5c2.25-2.81,4.42-5.74,6.51-8.82q-.16.83-.33,1.56a7.26,7.26,0,0,0-.17,1.57,35,35,0,0,0,0,8.32,18.64,18.64,0,0,0,2,6.6,11.09,11.09,0,0,0,3.87,4.2,9.63,9.63,0,0,0,5.69,1.32,14.56,14.56,0,0,0,8.24-3,49.81,49.81,0,0,0,8.49-7.58,103.24,103.24,0,0,0,8.16-10.22q2.37-3.36,4.53-6.68a38.27,38.27,0,0,0-.08,6.76,26.91,26.91,0,0,0,3.38,11.13q2.9,5.11,9.48,7.75a21.92,21.92,0,0,0,12.12,1.48,34.87,34.87,0,0,0,12-4.37,58.51,58.51,0,0,0,11.38-8.73,113.4,113.4,0,0,0,10.3-11.46c.84-1.08,1.66-2.16,2.46-3.26a39.78,39.78,0,0,0-.16,7.54,26.38,26.38,0,0,0,3.38,11.13q2.9,5,9.48,7.67a21.7,21.7,0,0,0,12,1.48,36,36,0,0,0,11.95-4.29,56.61,56.61,0,0,0,11.29-8.48,108.39,108.39,0,0,0,10.3-11.38l.77-1a44.54,44.54,0,0,0-1,5,35,35,0,0,0,0,8.32,18.64,18.64,0,0,0,2,6.6,11,11,0,0,0,3.88,4.2,9.6,9.6,0,0,0,5.68,1.32,14.59,14.59,0,0,0,8.25-3,50.57,50.57,0,0,0,8.49-7.58,106.24,106.24,0,0,0,8.16-10.22q2.25-3.19,4.32-6.38a39.72,39.72,0,0,0,0,6.54,26.38,26.38,0,0,0,3.38,11.13c1.93,3.36,5.08,5.91,9.48,7.67a21.66,21.66,0,0,0,12,1.48,35.93,35.93,0,0,0,12-4.29,56.66,56.66,0,0,0,11.3-8.48,109.51,109.51,0,0,0,10.3-11.38A120,120,0,0,0,396.88,96q3.87-6.51,6.67-12.45A2.64,2.64,0,0,0,402.56,80Zm-48.3,10.38Q361,75,367.78,66.28T379,57.71q3,.16,2.88,4.45T378.66,72.3a48,48,0,0,1-9.48,11.87,44.66,44.66,0,0,1-16.24,9.48A34.26,34.26,0,0,1,354.26,90.35Zm-98.9,0Q262.11,75,268.87,66.28t11.21-8.57q3,.16,2.89,4.45T279.75,72.3a48,48,0,0,1-9.47,11.87A44.83,44.83,0,0,1,254,93.65,34.26,34.26,0,0,1,255.36,90.35Z"/><path class="cls-1" d="M460.09,8.09c-1-3.29-2.63-5.49-4.94-6.59A14.29,14.29,0,0,0,448.31,0,12.16,12.16,0,0,0,442.7,1.5c-1.48.88-1.84,1.65-1.07,2.31.88.88.66,3.18-.66,6.92s-3.21,8.27-5.69,13.6S430,35.46,427,41.72s-5.88,12.34-8.41,18.22a138,138,0,0,0-5.93,16.23q-2.14,7.42-.83,11.38,1.48,5,4.37,6.76A10,10,0,0,0,421.77,96a7.23,7.23,0,0,0,4.45-1.49c1.15-.93,1.51-1.83,1.07-2.72q-1.32-2.46,1-8.49a141.87,141.87,0,0,1,6.34-13.84q4-7.83,9.07-16.73t9.07-17.4a125.42,125.42,0,0,0,6.34-15.74Q461.41,12.39,460.09,8.09Z"/><path class="cls-1" d="M411.05,111a11.51,11.51,0,0,0-4.7-1.16c-1.43,0-2.14.33-2.14,1a5.75,5.75,0,0,1-.82,2.39c-.56,1-1.19,2.17-1.9,3.38s-1.35,2.37-1.9,3.46a6.37,6.37,0,0,0-.82,2.64,8.14,8.14,0,0,0,2.23,5.93,14,14,0,0,0,4.86,3.38,12.93,12.93,0,0,0,4.86,1.08c1.49,0,2.23-.39,2.23-1.16a6.82,6.82,0,0,1,.74-2.64c.49-1.09,1.07-2.22,1.73-3.38s1.24-2.25,1.73-3.29a6.17,6.17,0,0,0,.74-2.39,8.14,8.14,0,0,0-2.14-5.77A14.69,14.69,0,0,0,411.05,111Z"/></g></g></svg>